<svg width="2200" height="1000" viewBox="0 0 2200 1000" fill="none" xmlns="http://www.w3.org/2000/svg">
<g clip-path="url(#clip0_2_15)">
<path d="M0 0H840C882.435 0 923.131 16.8571 953.137 46.8629C983.143 76.8687 1000 117.565 1000 160V840C1000 882.435 983.143 923.131 953.137 953.137C923.131 983.143 882.435 1000 840 1000H160C117.565 1000 76.8687 983.143 46.8629 953.137C16.8571 923.131 0 882.435 0 840V0Z" fill="#663399"/>
<path d="M817.5 923.1C785.2 923.1 760.5 913.7 743.2 894.8C726.1 875.8 717.2 848.7 716.4 813.3H786C786.4 844.6 797.4 860.3 819 860.3C830 860.3 837.8 856.8 842.3 849.9C846.7 843 849 832 849 816.9C849 804.9 846 794.9 840.2 787C832.326 777.611 822.216 770.354 810.8 765.9L785 753.5C762 742.5 745.3 729.5 735 714.3C725 699.2 720 678 720 650.9C720 620.6 728.8 596 746.3 577.1C764.3 558.2 788.8 548.8 820.1 548.8C850.3 548.8 873.7 558.1 890.2 576.6C907 595.2 915.8 621.8 916.5 656.6H849.5C849.906 645.225 847.61 633.916 842.8 623.6C839 616 831.6 612.2 820.6 612.2C801 612.2 791.2 623.9 791.2 647.2C791.2 659 793.6 668.2 798.4 675.2C805.323 682.937 813.998 688.904 823.7 692.6L848.4 703.5C873.9 715.2 892.3 729.5 903.6 746.8C915 764 920.6 787 920.6 815.8C920.6 850.3 911.6 876.8 893.3 895.3C875.1 913.8 849.8 923.1 817.5 923.1ZM592.7 923.1C560.4 923.1 535.7 913.7 518.4 894.8C501.3 875.8 492.4 848.7 491.6 813.3H561.2C561.6 844.6 572.6 860.3 594.2 860.3C605.2 860.3 613 856.8 617.4 849.9C621.9 843 624.1 832 624.1 816.9C624.1 804.9 621.2 794.9 615.4 787C607.526 777.611 597.416 770.354 586 765.9L560.2 753.5C537.2 742.5 520.5 729.5 510.2 714.3C500.2 699.2 495.2 678 495.2 650.9C495.2 620.6 504 596 521.5 577.1C539.5 558.2 564 548.8 595.3 548.8C625.5 548.8 648.9 558.1 665.3 576.6C682.3 595.2 691 621.8 691.7 656.6H624.7C625.106 645.225 622.81 633.916 618 623.6C614.2 616 606.8 612.2 595.8 612.2C576.2 612.2 566.4 623.9 566.4 647.2C566.4 659 568.8 668.2 573.6 675.2C580.523 682.937 589.198 688.904 598.9 692.6L623.6 703.5C649.1 715.2 667.5 729.5 678.8 746.8C690.1 764 695.8 787 695.8 815.8C695.8 850.3 686.7 876.8 668.5 895.3C650.3 913.8 625 923.1 592.7 923.1ZM358.6 923.1C327 923.1 301.9 914.5 283.3 897.3C264.7 880.2 255.5 854.5 255.5 820.5V652.5C255.5 618.7 265.3 593.1 284.9 575.5C304.8 558.1 330.9 549.3 363.2 549.3C394.5 549.3 419.2 558.3 437.5 576.1C456 594 465.3 620.6 465.3 656.1V669.4H391.6V656.5C391.6 642.8 388.6 632.7 382.8 626.1C380.265 622.803 376.988 620.152 373.234 618.362C369.48 616.572 365.357 615.694 361.2 615.8C349.2 615.8 340.7 619.9 335.9 628.2C330.784 639.693 328.487 652.241 329.2 664.8V810.8C329.2 841.3 339.9 856.8 361.2 857.1C371.2 857.1 378.7 853.5 383.9 846.3C389.552 837.208 392.243 826.586 391.6 815.9V805H465.3V816.4C465.3 840.1 460.7 859.9 451.4 875.7C442.559 891.12 429.283 903.524 413.3 911.3C396.239 919.453 377.505 923.495 358.6 923.1Z" fill="white"/>
</g>
<path d="M1278.32 608.548H1213.63V923H1147.34V608.548H1082.12V548.097H1278.32V608.548ZM1271.43 823.839V735.813C1271.43 699.225 1279.38 672.711 1294.76 656.272C1310.14 639.834 1332.94 631.88 1362.64 631.88C1392.33 631.88 1415.13 639.834 1430.51 656.272C1445.89 672.711 1453.31 699.225 1453.31 735.813V823.839C1453.31 860.428 1445.89 886.411 1430.51 902.85C1415.13 919.288 1392.33 927.242 1362.64 927.242C1332.94 927.242 1310.14 919.288 1294.76 902.85C1279.38 886.411 1271.43 860.428 1271.43 823.839ZM1390.21 824.369V735.283C1390.21 718.845 1388.09 707.179 1383.32 699.755C1378.54 692.331 1371.65 688.619 1362.11 688.619C1353.09 688.619 1346.2 692.331 1341.42 699.755C1336.65 707.179 1334.53 718.845 1334.53 735.283V824.369C1334.53 840.808 1336.65 852.474 1341.42 859.897C1346.2 867.321 1353.09 871.033 1362.11 871.033C1371.65 871.033 1378.54 867.321 1383.32 859.897C1388.09 852.474 1390.21 840.808 1390.21 824.369ZM1494.14 823.839V735.813C1494.14 699.225 1502.1 672.711 1517.48 656.272C1532.85 639.834 1555.66 631.88 1585.35 631.88C1615.05 631.88 1637.85 639.834 1653.23 656.272C1668.6 672.711 1676.03 699.225 1676.03 735.813V823.839C1676.03 860.428 1668.6 886.411 1653.23 902.85C1637.85 919.288 1615.05 927.242 1585.35 927.242C1555.66 927.242 1532.85 919.288 1517.48 902.85C1502.1 886.411 1494.14 860.428 1494.14 823.839ZM1612.92 824.369V735.283C1612.92 718.845 1610.8 707.179 1606.03 699.755C1601.26 692.331 1594.37 688.619 1584.82 688.619C1575.81 688.619 1568.91 692.331 1564.14 699.755C1559.37 707.179 1557.25 718.845 1557.25 735.283V824.369C1557.25 840.808 1559.37 852.474 1564.14 859.897C1568.91 867.321 1575.81 871.033 1584.82 871.033C1594.37 871.033 1601.26 867.321 1606.03 859.897C1610.8 852.474 1612.92 840.808 1612.92 824.369ZM1718.45 833.914V548.097H1781.55V830.202C1781.55 854.595 1793.22 866.791 1816.02 866.791H1818.67V923H1815.49C1750.8 923 1718.45 893.305 1718.45 833.914ZM1842.53 840.277V837.096H1902.98V840.277C1902.98 851.413 1905.64 859.897 1911.47 865.73C1916.77 871.563 1924.2 874.745 1934.27 874.745C1943.82 874.745 1951.24 872.094 1956.01 866.791C1960.78 861.488 1962.91 853.534 1962.91 843.459C1962.91 835.505 1960.78 829.142 1956.01 823.309C1951.24 818.006 1944.35 813.233 1934.8 808.991L1901.92 794.674C1880.18 785.129 1864.8 773.993 1856.85 761.267C1848.37 749.07 1844.12 733.162 1844.12 714.072C1844.12 690.21 1852.08 670.59 1868.52 655.212C1884.96 639.834 1906.17 631.88 1932.68 631.88C1959.19 631.88 1980.4 639.834 1996.84 655.212C2013.28 670.59 2021.24 691.271 2021.24 716.193V721.496H1960.25V718.314C1960.25 707.179 1957.6 698.164 1952.83 692.331C1947.53 686.498 1940.63 683.847 1932.15 683.847C1923.67 683.847 1916.77 685.968 1912 690.74C1907.23 695.513 1904.58 702.406 1904.58 711.421C1904.58 719.375 1906.7 725.738 1910.41 730.511C1914.12 735.283 1921.01 740.056 1931.09 744.298L1966.09 759.676C1986.77 768.69 2001.62 779.826 2010.63 792.553C2019.64 805.279 2024.42 821.718 2024.42 842.398C2024.42 867.321 2016.46 888.002 2000.02 903.38C1983.59 919.288 1961.31 927.242 1933.21 927.242C1905.11 927.242 1883.36 919.288 1866.93 903.91C1850.49 888.532 1842.53 867.321 1842.53 840.277Z" fill="#663399"/>
<defs>
<clipPath id="clip0_2_15">
<rect width="1000" height="1000" fill="white"/>
</clipPath>
</defs>
</svg>
