<svg xmlns="http://www.w3.org/2000/svg" viewBox="0 0 500 500"><path d="M0 0h500v500H0z" fill="#3c790a"/><path d="M189.2 367.5c-1.8-2.8-4-5.3-6.6-7.4-2.6-2.1-5.6-3.8-8.9-5-3.3-1.2-6.8-1.8-10.4-1.8-6.6 0-12.3 1.3-16.9 3.9-4.6 2.6-8.4 6-11.3 10.3-2.9 4.3-5 9.3-6.3 14.8-1.3 5.5-2 11.2-2 17.1 0 5.6.7 11.1 2 16.5 1.3 5.3 3.4 10.1 6.3 14.4 2.9 4.3 6.6 7.7 11.3 10.3 4.6 2.6 10.3 3.9 16.9 3.9 9 0 16.1-2.8 21.2-8.3 5.1-5.5 8.2-12.8 9.3-21.8h28.6c-.8 8.4-2.7 16-5.8 22.8-3.1 6.8-7.3 12.5-12.4 17.3-5.1 4.8-11.2 8.4-18.1 10.9-6.9 2.5-14.5 3.8-22.8 3.8-10.3 0-19.5-1.8-27.7-5.4-8.2-3.6-15.1-8.5-20.8-14.8-5.6-6.3-10-13.6-13-22.1-3-8.5-4.5-17.6-4.5-27.4 0-10 1.5-19.3 4.5-27.9 3-8.6 7.3-16.1 13-22.5s12.6-11.4 20.8-15.1c8.2-3.6 17.5-5.5 27.7-5.5 7.4 0 14.4 1.1 21 3.2s12.5 5.2 17.7 9.3c5.2 4.1 9.5 9.1 12.9 15.1 3.4 6 5.5 12.9 6.4 20.7h-28.6c-.6-3.4-1.8-6.5-3.5-9.3zm75.8 65.4c1.6 3.1 3.8 5.7 6.5 7.6 2.7 1.9 5.9 3.4 9.5 4.3 3.6.9 7.4 1.4 11.3 1.4 2.6 0 5.5-.2 8.5-.7 3-.4 5.8-1.3 8.5-2.5 2.6-1.3 4.8-3 6.6-5.2 1.8-2.2 2.6-5 2.6-8.4 0-3.6-1.2-6.6-3.5-8.8-2.3-2.3-5.4-4.1-9.1-5.6s-8-2.8-12.8-4c-4.8-1.1-9.6-2.4-14.5-3.8-5-1.3-9.9-2.8-14.7-4.6-4.8-1.8-9-4.2-12.8-7.1-3.8-2.9-6.8-6.5-9.1-10.8-2.3-4.3-3.5-9.6-3.5-15.7 0-6.9 1.5-12.9 4.4-18 2.9-5.1 6.8-9.3 11.6-12.7 4.8-3.4 10.2-5.9 16.2-7.5 6-1.6 12-2.4 18.1-2.4 7 0 13.8.8 20.2 2.4 6.5 1.6 12.2 4.1 17.2 7.6s9 8 11.9 13.5c2.9 5.5 4.4 12.1 4.4 19.8h-28.6c-.3-4-1.1-7.3-2.5-10-1.4-2.6-3.4-4.7-5.7-6.2-2.4-1.5-5.1-2.6-8.2-3.2-3.1-.6-6.4-.9-10.1-.9-2.4 0-4.8.3-7.1.8-2.4.5-4.5 1.4-6.5 2.6-1.9 1.3-3.5 2.8-4.8 4.7-1.3 1.9-1.9 4.3-1.9 7.1 0 2.6.5 4.8 1.5 6.4 1 1.6 3 3.1 5.9 4.5 2.9 1.4 7 2.8 12.2 4.1 5.2 1.4 12 3.1 20.4 5.3 2.5.5 6 1.4 10.4 2.7 4.5 1.3 8.9 3.4 13.3 6.3s8.2 6.7 11.4 11.6c3.2 4.8 4.8 11 4.8 18.5 0 6.1-1.2 11.9-3.6 17.1-2.4 5.3-5.9 9.8-10.6 13.6-4.7 3.8-10.5 6.8-17.5 8.9-7 2.1-15 3.2-24.2 3.2-7.4 0-14.6-.9-21.5-2.7s-13.1-4.7-18.4-8.6c-5.3-3.9-9.6-8.8-12.7-14.9-3.1-6-4.6-13.2-4.5-21.4h28.6c-.1 4.7.8 8.6 2.4 11.7zm122.1 0c1.6 3.1 3.8 5.7 6.5 7.6 2.7 1.9 5.9 3.4 9.5 4.3 3.6.9 7.4 1.4 11.3 1.4 2.6 0 5.5-.2 8.5-.7 3-.4 5.8-1.3 8.5-2.5 2.6-1.3 4.8-3 6.6-5.2 1.8-2.2 2.6-5 2.6-8.4 0-3.6-1.2-6.6-3.5-8.8-2.3-2.3-5.4-4.1-9.1-5.6s-8-2.8-12.8-4c-4.8-1.1-9.6-2.4-14.5-3.8-5-1.3-9.9-2.8-14.7-4.6-4.8-1.8-9-4.2-12.8-7.1-3.8-2.9-6.8-6.5-9.1-10.8-2.3-4.3-3.5-9.6-3.5-15.7 0-6.9 1.5-12.9 4.4-18 2.9-5.1 6.8-9.3 11.6-12.7 4.8-3.4 10.2-5.9 16.2-7.5 6-1.6 12-2.4 18.1-2.4 7 0 13.8.8 20.2 2.4 6.5 1.6 12.2 4.1 17.2 7.6s9 8 11.9 13.5c2.9 5.5 4.4 12.1 4.4 19.8H436c-.3-4-1.1-7.3-2.5-10-1.4-2.6-3.4-4.7-5.7-6.2-2.4-1.5-5.1-2.6-8.2-3.2-3.1-.6-6.4-.9-10.1-.9-2.4 0-4.8.3-7.1.8-2.4.5-4.5 1.4-6.5 2.6-1.9 1.3-3.5 2.8-4.8 4.7-1.3 1.9-1.9 4.3-1.9 7.1 0 2.6.5 4.8 1.5 6.4 1 1.6 3 3.1 5.9 4.5 2.9 1.4 7 2.8 12.2 4.1 5.2 1.4 12 3.1 20.4 5.3 2.5.5 6 1.4 10.4 2.7 4.5 1.3 8.9 3.4 13.3 6.3s8.2 6.7 11.4 11.6c3.2 4.8 4.8 11 4.8 18.5 0 6.1-1.2 11.9-3.6 17.1-2.4 5.3-5.9 9.8-10.6 13.6-4.7 3.8-10.5 6.8-17.5 8.9-7 2.1-15 3.2-24.2 3.2-7.4 0-14.6-.9-21.5-2.7s-13.1-4.7-18.4-8.6c-5.3-3.9-9.6-8.8-12.7-14.9-3.1-6-4.6-13.2-4.5-21.4h28.6c-.1 4.7.8 8.6 2.4 11.7z" fill="#fff"/></svg>