<svg xmlns="http://www.w3.org/2000/svg" preserveAspectRatio="xMinYMin" viewBox="0 0 512 512"><path d="M502.8 262.9c0-39-10.1-75.7-27.8-107.5 75.4-170.7-80.8-145.7-89.5-144-33.1 6.5-63.7 16.9-91.9 30.1a223.5 223.5 0 0 0-12.6-.4c-105.4 0-193.6 73.5-216.2 172.1 55.5-62.3 94.4-87.5 117.7-97.6a528.9 528.9 0 0 0-10.9 10.1c-1.2 1.1-2.3 2.3-3.6 3.4-2.4 2.3-4.7 4.5-7 6.8-1.4 1.4-2.7 2.7-4 4.2-2 2.1-4.1 4.2-6.1 6.2-1.4 1.5-2.8 3-4.2 4.4-1.9 2-3.7 4-5.5 6-1.4 1.6-2.8 3.1-4.2 4.7a615.7 615.7 0 0 0-9.2 10.6 602.6 602.6 0 0 0-4.7 5.7c-1.4 1.7-2.8 3.3-4.1 5-1.5 1.8-2.9 3.6-4.3 5.4-1.4 1.7-2.8 3.5-4.2 5.2-1.3 1.7-2.5 3.3-3.7 4.9-1.4 1.9-2.8 3.7-4.3 5.6-1 1.3-1.9 2.6-2.9 4a688 688 0 0 0-24 35 709.2 709.2 0 0 0-5.6 8.8l-.3.5a697.7 697.7 0 0 0-5.2 8.6l-.2.3a712.5 712.5 0 0 0-12.6 21.8c-20 36.2-29.7 61.5-30.1 63-63.1 225.5 133.8 130.3 161.3 116.1 29.6 14.6 62.9 22.8 98.1 22.8 96.4 0 178.5-61.6 209-147.5H373.5c-17.2 29.1-50.4 48.9-88.6 48.9-55.9 0-101.2-42.3-101.2-94.6H501c1.2-9.4 1.8-18.9 1.8-28.6zM461.4 44.7c19.1 12.9 34.4 33.1 8.1 101.3-25.2-40.6-63.2-72.4-108.4-89.9 20.5-9.9 71.4-30.9 100.3-11.5zm-406 416.7c-15.6-16-18.3-54.8 16.1-125.6 17.3 49.8 51.9 91.6 96.5 118.1-22.2 12.2-81.2 39.8-112.6 7.5zm127.8-230.6c1.8-50.8 46-91.4 100.3-91.4S382 180 383.7 230.8H183.2z" fill="#1ebbee"/></svg>