<svg xmlns="http://www.w3.org/2000/svg" viewBox="0 0 512 512"><path fill="#8bc34a" d="M127.9 383.9c0 12.8 8.5 21.4 21.3 21.3h21.4V480c0 17.1 14.9 32 32 32s32-14.9 32-32v-74.8h42.8V480c0 17.1 14.9 32 32 32s32-14.9 32-32v-74.8h21.4c12.8 0 21.4-8.5 21.3-21.3V170.3H127.9v213.6zM74.5 170.3c-17.1 0-32 14.9-32.1 32v149.5c0 17.1 14.9 32 32.1 32.1s32-14.9 32-32.1V202.3c0-17.1-14.9-32-32-32zm363 0c-17.1 0-32 14.9-32 32v149.5c0 17.1 14.9 32 32 32.1s32-14.9 32.1-32.1V202.3c0-17.1-14.9-32-32.1-32zM330.7 46.4l27.8-27.7c4.3-4.3 4.3-10.7 0-15-4.3-4.3-10.7-4.3-14.9 0l-32.1 32.1c-14.9-10.7-34.2-14.9-55.5-15s-40.6 4.3-57.7 12.8l-29.9-32c-4.3-2.1-12.8-2.1-17 0-2.1 4.3-2.1 12.8 0 17.1l27.7 27.7c-29.9 23.5-51.3 59.8-51.2 102.6h256.2c0-42.7-21.4-81.1-53.4-102.6zm-117.4 59.8h-21.4V84.9h21.4v21.3zm106.8 0h-21.4V84.9h21.4v21.3z"/></svg>
