<svg viewBox="110 100 290 290" xmlns="http://www.w3.org/2000/svg"><path d="M188.004 264.078c-.004.012-.816 6.531-1.631 14.045a531.535 531.535 0 0 0-1.126 11.34 192.5 192.5 0 0 0-.374 4.968 66.283 66.283 0 0 0-.144 3.89c0 2.129.172 4.215.67 6.244.375 1.521.933 3.014 1.73 4.42 1.201 2.114 2.939 4.004 5.195 5.553 2.266 1.559 5.023 2.803 8.377 3.785 4.591 1.35 9.98 2.385 15.123 2.393 1.977 0 3.926-.156 5.791-.541 1.398-.285 2.754-.699 4.037-1.296 1.91-.884 3.678-2.206 4.969-4.031a11.474 11.474 0 0 0 1.525-3.044c.365-1.108.58-2.297.654-3.551.324-5.904.6-13.584.797-19.808.193-6.22.305-10.97.305-10.976l-6.453-.152s-.01.293-.021.836c-.094 3.775-.514 19.584-1.076 29.742-.078 1.326-.391 2.236-.83 2.959-.334.541-.75.996-1.305 1.41-.822.618-1.973 1.135-3.41 1.479-1.436.346-3.145.516-4.982.516-4.254.005-9.188-.911-13.301-2.127-2.545-.749-4.506-1.62-5.994-2.555-1.114-.703-1.969-1.432-2.643-2.194-1.012-1.146-1.648-2.371-2.084-3.853-.428-1.475-.621-3.215-.617-5.209 0-.865.045-2.078.133-3.496.303-4.986 1.076-12.512 1.775-18.742.35-3.119.678-5.924.92-7.943l.293-2.393c.064-.559.105-.867.105-.867l-6.408-.802zm51.648-104.369c-3.77 0-6.828 4.559-6.828 10.178 0 5.619 3.059 10.178 6.828 10.178 3.773 0 6.832-4.559 6.832-10.178 0-5.619-3.058-10.178-6.832-10.178zm1.953 12.723c-1.615 0-2.928-1.953-2.928-4.361 0-2.41 1.313-4.361 2.928-4.361s2.926 1.952 2.926 4.361c0 2.408-1.31 4.361-2.926 4.361zM275.836 168c.334-.613.691-1.025.99-1.254.305-.234.527-.302.762-.305.234.002.455.07.764.305.449.338 1.027 1.119 1.455 2.299.432 1.171.721 2.703.721 4.378h5.264c-.004-3.414-.73-6.553-2.074-9.041-.68-1.24-1.521-2.323-2.553-3.129-1.027-.801-2.27-1.303-3.576-1.303-1.303 0-2.545.502-3.572 1.303-1.549 1.217-2.676 3.027-3.445 5.113-.768 2.094-1.184 4.497-1.188 7.057h5.27c-.009-2.235.512-4.209 1.182-5.423z" fill="#01a3e3"/><path d="M364.033 248.247a88.807 88.807 0 0 0-6.658-8.557c.178-.277.365-.553.531-.825 1.393-2.306 2.408-4.56 2.926-6.812.781-3.436 1.164-6.75 1.164-9.93.004-5.473-1.139-10.559-3.248-15.186-2.1-4.631-5.15-8.799-8.902-12.549l-3.564-3.566c-.395-3.9-1.15-8.83-2.404-15.406-3.189-16.722-17.855-42.316-35.77-54.629-17.375-11.941-39.518-16.602-51.295-16.77-9.68-.136-31.949 3.537-51.301 16.77-17.939 12.27-33.813 37.721-35.766 54.629-1.105 9.605-1.439 15.73-1.336 20.254l-.012.004c-.264.063-2.102.48-4.242 1.969a13.12 13.12 0 0 0-3.186 3.162c-.979 1.38-1.785 3.129-2.191 5.192-.645 3.214-.971 4.837-1.135 5.662a16.986 16.986 0 0 0-1.549 2.268 16.949 16.949 0 0 0-1.48 3.404 15.15 15.15 0 0 0-.391 7.489c.365 1.826 1.068 4.436 2.311 7.555a56.557 56.557 0 0 0 2.125 4.67c-3.029 3.219-6.189 6.98-9.072 11.205-9.754 14.306-20.404 40.341-18.857 55.273 1.951 18.861 4.549 19.51 11.053 15.608 7.271-4.362 15.607-17.558 15.607-17.558s8.879 24.211 23.412 37.066c16.906 14.956 32.514 24.061 51.373 27.961 12.307 2.545 20.457 2.878 24.637 2.801 4.178.077 12.328-.256 24.635-2.801 18.859-3.9 34.461-13.005 51.373-27.961 14.529-12.855 23.408-37.066 23.408-37.066s8.336 13.195 15.607 17.558c6.502 3.901 9.104 3.253 11.057-15.608 1.545-14.935-9.104-40.97-18.86-55.276zM281.924 144.2c9.516 0 17.23 11.502 17.23 25.688 0 14.188-7.715 25.686-17.23 25.686s-17.234-11.498-17.234-25.686c-.001-14.186 7.718-25.688 17.234-25.688zm-48.125 0c9.52 0 17.234 11.502 17.234 25.688 0 14.188-7.715 25.686-17.234 25.686-9.516 0-17.23-11.498-17.23-25.686-.001-14.186 7.714-25.688 17.23-25.688zm-12.676 60.479c11.834-5.073 33.43-6.239 38.983-6.458l.033-.047s.23.006.65.022c.422-.016.648-.022.648-.022l.037.047c5.553.219 27.15 1.385 38.982 6.458 13.656 5.851 21.457 9.103 21.457 12.355 0 3.252-2.598 6.502-9.75 9.754-7.156 3.252-10.406 2.598-10.406 2.598s3.9-4.549 5.203-9.1c0 0-19.492 16.133-43.016 17.516-.186.014-.361.031-.555.039l-.164.01c-.428.016-.855.02-1.283.028-.383.013-.77.025-1.15.025-.387 0-.77-.012-1.152-.025-.432-.008-.857-.012-1.281-.028l-.17-.01c-.191-.008-.369-.025-.559-.039-23.52-1.381-43.012-17.516-43.012-17.516 1.298 4.551 5.205 9.1 5.205 9.1s-3.252.654-10.404-2.598c-7.156-3.252-9.758-6.502-9.758-9.754s7.802-6.504 21.462-12.355zm-58.924 11.661c.234-.34.443-.598.58-.758.064-.082.119-.134.143-.164l.018-.018.678-.678.193-.959 1.299-6.5c.238-1.191.654-2.047 1.138-2.736.284-.4.6-.733.926-1.026a52.146 52.146 0 0 0 1.787 4.234c1.709 3.594 4.309 8.057 8.18 12.732 5.813 7.014 14.506 14.49 27.244 20.168 12.738 5.684 29.492 9.568 51.396 9.564 1.023 0 2.061-.01 3.107-.025 20.166-.328 36.029-3.695 48.471-8.632 9.334-3.702 16.738-8.283 22.566-13.095 8.752-7.214 13.943-14.919 16.943-20.845a53.664 53.664 0 0 0 2.035-4.525c1.602 2.084 2.93 4.256 3.967 6.531 1.73 3.818 2.662 7.934 2.666 12.518 0 2.662-.32 5.488-1.006 8.5-.297 1.322-1.008 3.011-2.15 4.89-1.988 3.297-5.262 7.147-9.508 11.061-6.363 5.875-14.904 11.918-24.576 16.919-9.672 5.006-20.482 8.98-31.387 10.828-6.902 1.172-14.045 1.705-21.252 1.705-13.871.004-27.963-1.979-40.914-5.101-12.954-3.126-24.77-7.399-34.077-11.929-11.492-5.597-18.673-12.964-23.195-19.707a50.103 50.103 0 0 1-4.941-9.314c-1.088-2.732-1.688-5-1.977-6.426a8.719 8.719 0 0 1 .234-4.326c.367-1.19.94-2.2 1.412-2.886zm160.217 118.396c-18.563 24.568-54.537 28.965-65.604 29.746-11.068-.781-47.043-5.178-65.606-29.746-22.111-29.264-18.209-60.476-15.607-69.582.6-2.088 1.377-4.205 2.236-6.254a70.767 70.767 0 0 0 10.008 5.904c9.795 4.764 22 9.166 35.383 12.396 13.389 3.232 27.947 5.285 42.432 5.287 7.523 0 15.029-.555 22.332-1.797 17.848-3.039 34.943-11.197 48.139-20.455.053-.039.105-.075.16-.117.658 1.664 1.258 3.358 1.734 5.033 2.602 9.11 6.502 40.322-15.607 69.585z" fill="#01a3e3"/><path d="M178.867 341.766c-2.322-2.061-4.502-4.401-6.523-6.896-2.926 1.654-6.576 3.887-8.973 5.938-3.561 3.053-5.206 7.806-1.949 8.456 0 0-15.172 15.136 11.053 26.011 26.666 11.053 55.928 7.801 70.232-1.949.686-.469 1.311-.904 1.903-1.316-3.922-.409-8.701-1.111-14.369-2.28-18.86-3.908-34.468-13.011-51.374-27.964zm105.848 27.962c-5.672 1.169-10.449 1.871-14.375 2.28.594.412 1.217.848 1.904 1.316 14.309 9.75 43.57 13.002 70.23 1.949 26.225-10.875 11.057-26.011 11.057-26.011 3.252-.65 1.607-5.403-1.951-8.456-2.393-2.051-6.047-4.283-8.969-5.938-2.023 2.488-4.201 4.836-6.523 6.896-16.906 14.955-32.514 24.058-51.373 27.964z" fill="#01a3e3"/></svg>
