<svg preserveAspectRatio="xMinYMin" viewBox="0 0 133 133" xmlns="http://www.w3.org/2000/svg"><path d="M2.528 21.647C11.378 4.499 36.056-4.257 52.54 3.25c19.526 8.894 23.642 32.719 7.891 48.629-5.31 5.364-11.989 9.447-18.313 13.713-7.84 5.289-15 11.022-18.847 20.045-6.581 15.432-.969 34.055 13.116 43.105 1.236.794 2.512 1.527 3.91 2.374-8.094 1.022-20.646-3.737-27.562-10.345-14.01-13.386-16.931-34.668-6.418-51.196 4.171-6.557 10.058-12.015 14.314-18.528 3.181-4.868 6.455-10.454 7.113-16.024 1.227-10.388-9.335-17.654-20.179-14.963-1.427.354-2.812.88-5.037 1.587zm70.468 34.307c7.138-3.942 13.374-7.317 19.538-10.821 3.264-1.855 4.57-4.651 4.914-8.565.359-4.091 2.091-8.062 3.223-12.085l2.048-.163c1.259 2.329 2.995 4.53 3.664 7.019.995 3.698 2.91 5.724 6.494 7.291 11.446 5.002 16.941 14.284 17.927 26.572.322 4.015-1.395 6.236-5.143 6.252-4.429.018-9.392.491-13.194-1.256-12.58-5.779-24.518-13.04-39.471-14.244zM33.415 84.129c7.248-11.566 20.69-15.318 34.408-10.195 18.268 6.823 25.094 21.836 21.015 47.098 3.071.748 6.38 1.104 9.28 2.387 2.821 1.249 5.223 3.446 7.809 5.227l-.692 1.895-42.062 1.532c7.084-4.822 12.637-10.475 14.966-18.735 2.368-8.399.75-16.189-4.017-23.326-8.277-12.392-23.156-14.666-40.707-5.883zm36.292 22.266c-.05 10.475-8.174 18.4-18.826 18.362-10.565-.038-18.616-8.102-18.587-18.617.029-10.555 8.57-18.973 19.083-18.81 10.23.159 18.379 8.635 18.33 19.065zm-18.496 8.911c4.931-.121 9.155-4.536 9.028-9.434-.127-4.875-4.657-9.193-9.484-9.041-4.891.153-9.143 4.642-9.01 9.511.136 4.968 4.484 9.086 9.466 8.964zm4.171-51.126c13.538-3.33 26.477-.969 38.309 5.731 9.236 5.229 18.39 9.787 29.161 10.635 3.703.292 6.804 2.334 8.666 7.524-7.88-3.081-13.894.393-20.2 2.667-8.31 2.995-12.28 1.505-17.542-5.702C84.291 72.043 71.83 64.501 55.382 64.18z" fill="#F0820B" /></svg>
