<svg viewBox="0 0 462 462" xmlns="http://www.w3.org/2000/svg" preserveAspectRatio="xMinYMin"><circle fill="#377EF0" cx="230.5" cy="231.5" r="230.5"/><path d="M127.115 95.221l-6.066-4.291c-.77-.587-1.705-1.812-2.285-1.662-4.863 1.261-10.036 2.11-14.303 4.523-1.806 1.021-1.604 5.503-2.427 8.38-.712 2.487-.872 6.15-2.54 7.12-2.866 1.666-3.337 3.467-3.558 6.317-.258 3.318-.297 7.289-2.112 9.723-4.146 5.561-9.531 10.181-13.956 15.559-1.591 1.934-2.729 4.997-2.575 7.451.309 4.909 1.925 9.724 2.434 14.636.206 1.981-1.076 4.117-1.68 6.182-1.784-.567-4.294-.585-5.214-1.804-2.675-3.545-4.712-7.571-7-11.408-2.467-2.806-17.71-4.826-20.851-1.995-4.706 4.241-9.583 3.266-14.821 2.232-6.632-1.308-12.219 3.209-12.095 9.863.107 5.764 1.291 11.606.63 17.253-.447 3.818.431 5.921 3.269 7.8 2.377 1.797 4.712 3.653 7.14 5.378 3.269 2.323 7.532 2.676 9.335-.592 4.241-7.691 10.227-4.492 16.913-4.258-1.41 3.545-2.566 6.381-3.669 9.237-1.868 4.835-1.03 6.339 3.961 7.142 3.615.582 7.346.784 10.801 1.867 1.49.467 3.23 2.631 3.424 4.202.382 3.085-.127 6.306-.472 9.449-.476 4.348 1.344 6.217 5.521 7.924 10.073 4.117 19.173 3.178 28.433-2.206 7.876-4.579 16.642-1.592 25.023-1.921 5.61-.219 10.055 1.599 13.211 6.343.454.684 1.194 1.173 1.687 1.838 6.647 8.97 15.311 14.511 26.547 15.759 3.833.426 6.471 2.513 7.749 6.139 5.469 15.516 16.283 24.093 32.622 26.605 7.172 1.102 14.107 3.922 21.039 6.286 1.813.618 3.212 2.447 4.801 3.719 1.582 13.584-1.956 25.463-11.165 35.787-1.925 2.157-2.559 5.616-3.355 8.592-1.074 4.014-1.325 8.284-2.702 12.171-.98 2.769-2.745 5.713-5.015 7.484-5.501 4.293-11.371 8.163-17.347 11.783-4.006 2.427-5.668 5.334-5.583 10.121.053 2.99-1.027 6.736-2.974 8.909-15.238 16.994-30.793 33.704-46.306 50.45-1.322 1.427-3.051 2.475-4.591 3.7l-31.102-16.883c1.066-12.277 2.112-24.555 3.205-36.828.96-10.778 2.164-21.539 2.822-32.334.16-2.62-.594-6.207-2.339-7.852-4.325-4.076-9.723-6.995-14.18-10.954-2.591-2.302-4.716-5.482-6.138-8.673-3.038-6.819-4.784-14.286-8.346-20.782-4.495-8.196-6.337-16.484-5.983-25.751.197-5.163.98-9.633 5.025-12.886 5.92-4.759 7.711-10.852 6.734-18.1-.154-1.141-.028-2.332.068-3.492.332-4.021-2.18-6.501-5.498-6.286-9.468.611-16.194-5.45-23.924-8.998-1.429-.656-3.125-3.159-2.917-4.54 1.014-6.707-2.832-10.083-7.775-13.082-2.269-1.377-4.186-3.393-6.542-4.551-2.849-1.4-5.976-3.02-9.015-3.087-6.792-.15-13.611.966-20.406.839-3.458-.065-7.906.768-9.808-3.893 1.241-19.867 6.876-38.698 13.814-57.164 8.092-21.538 19.396-41.389 33.667-59.377 18.875-23.79 41.388-43.537 68.13-58.193 6.019-3.298 12.276-6.16 18.424-9.223 1.972 4.032 4.244 7.95 5.824 12.13 1.325 3.505 2.667 6.218 6.501 7.959 5.182 2.353 10.426 5.204 12.651 11.164l2.778 8.088c-1.041.491-2.008 1.146-3.072 1.414-7.248 1.826-14.182 3.961-19.264 10.181-1.263 1.548-4.433 1.867-6.793 2.11-3.319.342-6.701.087-10.055.087l-.169 2.032c3.92 3.47 9.274 1.304 13.748 2.597l9.783 8.228c-5.033 6.43-11.415 9.661-19.726 8.313zm287.89 274.868c-4.891-9.231-9.86-18.421-14.606-27.726-.912-1.79-1.876-4.401-1.235-6 4.057-10.124 2.576-20.65 2.828-31.049.072-2.992-.162-5.998.048-8.976.341-4.822-.39-9.267-3.646-13.034-4.295-4.967-2.986-10.981-3.103-16.706-.148-7.231-.507-7.927-7.646-7.593-4.552.214-7.621-1.088-9.633-5.231-1.006-2.07-2.532-3.888-3.823-5.821-3.721-3.007-11.684-3.525-15.619-.135-7.764 6.688-16.421 9.643-26.572 8.239-.647-.09-1.327.06-1.992.098-3.527.295-5.339-1.63-6.768-4.65-5.542-11.717-10.879-23.561-20.994-32.391-1.347-1.177-1.879-3.864-1.916-5.868a762.627 762.627 0 0 1-.001-29.946c.048-2.384.649-5.064 1.881-7.062 4.825-7.817 8.423-16.666 17.896-20.716 1.656-.708 2.727-4.312 2.903-6.665.538-7.202 4.384-11.954 11.495-13.228.163-.029.329-.066.494-.065 10.942.086 19.588-4.851 27.564-11.887 2.236-1.972 5.878-3.013 8.961-3.227 6.789-.47 13.635-.09 20.456-.158 3.325-.032 5.177.883 3.964 4.676-3.555 11.116-.896 9.863 7.783 12.708 6.48 2.125 13.029 4.047 19.456 6.319 4.52 1.597 6.937.184 8.055-4.352.675-2.737 1.437-5.535 2.75-7.991.528-.987 2.636-1.13 4.025-1.658 9.825 18.518 16.145 38.296 19.803 58.813 11.42 64.061-1.742 122.883-38.65 176.419-1.204 1.747-2.764 3.248-4.158 4.863zm16.23-253.278c-2.03-.943-4.127-1.765-6.078-2.85-9.429-5.247-18.819-10.564-28.223-15.857-6.036-4.439-13.209-2.145-19.802-3.293-4.251-.741-6.502 1.023-6.595 5.727-.03 1.54-2.168 4.464-2.966 4.339-6.611-1.033-9.113 3.381-11.75 7.947-1.578 2.733-3.651 5.199-5.052 8.009-2.052 4.116-5.03 5.941-9.584 5.048-6.922-.834-10.763-6.255-15.01-10.708-1.41-1.48-1.339-4.945-1.037-7.39 1.74-14.093-.355-11.892 13.253-12.635 2.991-.163 6.053.111 8.961-.446 2.682-.513 6.922-1.318 7.453-2.968 1.301-4.038 2.309-8.899-1.742-12.536-2.825-2.537-5.729-4.988-9.297-8.083l4.254-1.013c1.982.2 3.986.277 5.943.623 6.958 1.231 12.569-.67 17.286-6.17 2.774-3.234 6.446-5.696 9.714-8.506 20.391 17.248 37.093 37.547 50.272 60.762zm-84.944-51.984l-7.727-1.181c.829-3.542 1.914-6.789 2.274-10.115.342-3.171.562-6.602-.285-9.604-1.799-6.379-4.325-12.554-6.553-18.812l31.93 18.957c-.671 5.563-1.479 11.114-1.963 16.694-.303 3.498-2.196 4.429-5.291 4.315-4.126-.152-8.257-.176-12.385-.254zM193.993 26.05c-6.241 1.029-10.575-1.708-14.188-6.617-2.911-3.955-6.386-7.495-9.61-11.219l43.812-7.22c-1.797 2.135-3.569 4.292-5.396 6.402-4.371 5.048-11.57 8.733-7.514 17.597l-7.104 1.057z" fill="#C3D8FA"/></svg>