<svg viewBox="0 0 39 39" xmlns="http://www.w3.org/2000/svg" preserveAspectRatio="xMinYMin"><path d="M12.267 11.864C12.267 10.6 11.493 9 8.24 9H3.231l-1.424 6.588h5.222c4.077 0 5.238-1.93 5.238-3.724zm13.493 0C25.76 10.6 24.988 9 21.736 9h-5.01l-1.423 6.587h5.219c4.079.001 5.238-1.929 5.238-3.723zm-15.3 9.915c0-1.264-.774-2.868-4.027-2.868H1.424L0 25.503h5.22c4.078 0 5.24-1.935 5.24-3.724zm13.493 0c0-1.264-.775-2.868-4.025-2.868h-5.009l-1.426 6.592h5.222c4.079 0 5.238-1.935 5.238-3.724zm14.117-4.021c0-1.265-.775-2.868-4.025-2.868h-5.009l-1.426 6.591h5.22c4.079 0 5.24-1.93 5.24-3.723zm-1.946 10.323c0-1.265-.773-2.864-4.025-2.864H27.09l-1.424 6.588h5.22c4.078 0 5.238-1.935 5.238-3.724zm-14.11 4.022c0-1.27-.772-2.873-4.022-2.873H12.98l-1.424 6.591h5.22c4.079.001 5.238-1.929 5.238-3.718z"/></svg>
