<svg viewBox="0 0 128 128" xmlns="http://www.w3.org/2000/svg"><path fill="none" d="M0 0h128v128H0z"/><path d="M44.501 27.278c.5-4.236 3.349-9.731 8.713-12.25-8.059-1.221-14.603 2.519-17.863 7.327-5.172-1.106-8.35-1.167-13.552-.204-3.301-2.48-7.182-8.131-6.878-14.044-6.245 7.292-7.532 12.79-6.762 19.354-24.036 42.621 8.302 93.872 54.397 93.872 41.412 0 65.444-31.395 65.444-63.564 0-21.695-9.907-40.526-20.021-44.598 3.774 4.123 8.061 14.861 7.24 22.293-8.164-21.071-28.548-29.215-35.417-28.781 22.581 8.728 27.985 38.438 25.981 47.207-1.963-10.282-8.228-19.139-11.975-21.48 21.869 50.786-30.946 66.39-47.061 48.764 4.156 1.068 12.359.543 18.504-3.536 5.749-3.817 6.29-4.041 9.984-4.325 4.388-.338-.264-8.927-9.849-7.474-3.944.598-10.443 5.195-18.436 2.165-9.645-3.656-9.341-16.707.618-12.781 2.156-2.773.564-8.014.564-8.014 2.894-2.627 6.547-4.477 8.772-5.778 1.459-.853 5.305-3.215 5.088-7.807-.784-.607-2.05-1.383-4.902-1.221-11.115.699-11.858-3.281-12.589-5.125z" fill="#FF8000"/></svg>