<svg preserveAspectRatio="xMinYMin" viewBox="0 0 935 935" xmlns="http://www.w3.org/2000/svg"><defs><linearGradient x1="50%" y1="0%" x2="50%" y2="99.659%" id="a"><stop stop-color="#FFF" offset="0%"/><stop stop-color="#B9B9B9" offset="100%"/></linearGradient><filter x="-50%" y="-50%" width="200%" height="200%" filterUnits="objectBoundingBox" id="b"><feOffset dy="19" in="SourceAlpha" result="shadowOffsetOuter1"/><feGaussianBlur stdDeviation="9.5" in="shadowOffsetOuter1" result="shadowBlurOuter1"/><feColorMatrix values="0 0 0 0 0 0 0 0 0 0 0 0 0 0 0 0 0 0 0.232818161 0" in="shadowBlurOuter1" result="shadowMatrixOuter1"/><feMerge><feMergeNode in="shadowMatrixOuter1"/><feMergeNode in="SourceGraphic"/></feMerge></filter><radialGradient cy="36.906%" fx="50%" fy="36.906%" r="58.132%" id="c"><stop stop-color="#0DF" offset="0%"/><stop stop-color="#009ECC" offset="58.673%"/><stop stop-color="#0A62DA" offset="95.892%"/></radialGradient><linearGradient x1="50%" y1="0%" x2="50%" y2="100%" id="d"><stop stop-color="#FFF" offset="0%"/><stop stop-color="#BCBCBC" offset="99.659%"/></linearGradient><filter x="-50%" y="-50%" width="200%" height="200%" filterUnits="objectBoundingBox" id="e"><feGaussianBlur stdDeviation="11.827" in="SourceGraphic" result="blur"/></filter></defs><g transform="translate(18 1)" fill="none" ><circle stroke="#B2B2B2" fill="url(#a)" filter="url(#b)" cx="448.7" cy="448.7" r="448.3"/><circle fill="url(#c)" cx="449" cy="448" r="412"/><path d="M444 56.006a5 5 0 1 1 10 0v71.988a5 5 0 1 1-10 0V56.006zm0 704a5 5 0 1 1 10 0v71.988a5 5 0 1 1-10 0v-71.988zM836.994 439a5 5 0 1 1 0 10h-71.988a5 5 0 1 1 0-10h71.988zm-704 0a5 5 0 1 1 0 10H61.006a5 5 0 1 1 0-10h71.988zm586.824-272.889a5 5 0 1 1 7.071 7.071l-50.903 50.904a5 5 0 1 1-7.071-7.071l50.903-50.904zM222.014 663.914a5 5 0 1 1 7.071 7.071l-50.903 50.904a5 5 0 1 1-7.071-7.071l50.903-50.904zm504.875 50.904a5 5 0 1 1-7.071 7.071l-50.904-50.903a5 5 0 1 1 7.071-7.071l50.904 50.903zM229.086 217.014a5 5 0 1 1-7.071 7.071l-50.904-50.903a5 5 0 1 1 7.071-7.071l50.904 50.903zm409.58-111.527a5 5 0 1 1 8.66 5l-35.993 62.344a5 5 0 1 1-8.66-5l35.994-62.344zm-352 609.682a5 5 0 1 1 8.66 5l-35.993 62.344a5 5 0 1 1-8.66-5l35.994-62.344zm500.847-81.502a5 5 0 1 1-5 8.66l-62.344-35.994a5 5 0 1 1 5-8.66l62.344 35.994zm-609.682-352a5 5 0 1 1-5 8.66l-62.344-35.994a5 5 0 1 1 5-8.66l62.344 35.994zm644.648 57.083a5 5 0 1 1 2.588 9.66l-69.535 18.631a5 5 0 1 1-2.588-9.66l69.535-18.63zM142.468 520.96a5 5 0 1 1 2.588 9.66l-69.535 18.63a5 5 0 1 1-2.588-9.66l69.535-18.63zM554.25 817.48a5 5 0 1 1-9.66 2.588l-18.631-69.535a5 5 0 1 1 9.66-2.588l18.63 69.535zM372.04 137.468a5 5 0 1 1-9.66 2.588l-18.63-69.535a5 5 0 1 1 9.66-2.588l18.63 69.535zm172.55-69.535a5 5 0 1 1 9.66 2.588l-18.633 69.535a5 5 0 1 1-9.66-2.588l18.633-69.535zM362.382 747.944a5 5 0 1 1 9.66 2.588l-18.633 69.535a5 5 0 1 1-9.66-2.588l18.633-69.535zm462.685-208.353a5 5 0 1 1-2.588 9.66l-69.535-18.633a5 5 0 1 1 2.588-9.66l69.535 18.633zM145.056 357.382a5 5 0 1 1-2.588 9.66l-69.535-18.633a5 5 0 1 1 2.588-9.66l69.535 18.633zm637.457-111.71a5 5 0 1 1 5 8.66l-62.344 35.995a5 5 0 1 1-5-8.66l62.344-35.994zm-609.682 352a5 5 0 1 1 5 8.66l-62.344 35.995a5 5 0 1 1-5-8.66l62.344-35.994zm474.496 179.84a5 5 0 1 1-8.66 5l-35.994-62.343a5 5 0 1 1 8.66-5l35.994 62.344zm-352-609.681a5 5 0 1 1-8.66 5l-35.994-62.344a5 5 0 1 1 8.66-5l35.994 62.344zm198.44-106.827a5.25 5.25 0 0 1 5.883-4.52 5.24 5.24 0 0 1 4.512 5.888l-4.24 32.209a5.25 5.25 0 0 1-5.882 4.52 5.24 5.24 0 0 1-4.513-5.889l4.24-32.208zM397.43 792.77a5.25 5.25 0 0 1 5.882-4.52 5.24 5.24 0 0 1 4.513 5.888l-4.24 32.209a5.25 5.25 0 0 1-5.883 4.52 5.24 5.24 0 0 1-4.512-5.889l4.24-32.208zm433.91-304.005a5.249 5.249 0 0 1 4.518 5.882 5.24 5.24 0 0 1-5.887 4.513l-32.196-4.239a5.249 5.249 0 0 1-4.518-5.882 5.24 5.24 0 0 1 5.886-4.513l32.197 4.239zM99.575 392.426a5.249 5.249 0 0 1 4.518 5.882 5.24 5.24 0 0 1-5.887 4.513l-32.196-4.239a5.249 5.249 0 0 1-4.518-5.882 5.24 5.24 0 0 1 5.886-4.513l32.197 4.24zm651.574-187.455a5.25 5.25 0 0 1 7.356.963 5.24 5.24 0 0 1-.973 7.354l-25.772 19.776a5.25 5.25 0 0 1-7.356-.963 5.24 5.24 0 0 1 .973-7.355l25.772-19.775zM165.591 654.285a5.25 5.25 0 0 1 7.355.964 5.24 5.24 0 0 1-.973 7.354l-25.772 19.776a5.25 5.25 0 0 1-7.356-.964 5.24 5.24 0 0 1 .974-7.354l25.772-19.776zm521.788 91.864a5.25 5.25 0 0 1-.963 7.355 5.24 5.24 0 0 1-7.355-.973l-19.775-25.772a5.25 5.25 0 0 1 .963-7.355 5.24 5.24 0 0 1 7.355.973l19.775 25.772zM238.064 160.59a5.25 5.25 0 0 1-.963 7.356 5.24 5.24 0 0 1-7.355-.973L209.971 141.2a5.25 5.25 0 0 1 .963-7.356 5.24 5.24 0 0 1 7.355.973l19.775 25.772zm440.998-25.772a5.25 5.25 0 0 1 7.354-.973 5.24 5.24 0 0 1 .964 7.356l-19.776 25.772a5.25 5.25 0 0 1-7.355.973 5.24 5.24 0 0 1-.963-7.355l19.776-25.773zM229.747 720.377a5.25 5.25 0 0 1 7.354-.973 5.24 5.24 0 0 1 .964 7.355l-19.776 25.773a5.25 5.25 0 0 1-7.355.973 5.24 5.24 0 0 1-.963-7.356l19.776-25.772zM757.53 674.06a5.25 5.25 0 0 1 .973 7.355 5.24 5.24 0 0 1-7.355.963l-25.771-19.775a5.25 5.25 0 0 1-.973-7.354 5.24 5.24 0 0 1 7.355-.963l25.771 19.774zM171.973 224.746a5.25 5.25 0 0 1 .973 7.354 5.24 5.24 0 0 1-7.356.963l-25.77-19.773a5.25 5.25 0 0 1-.973-7.355 5.24 5.24 0 0 1 7.355-.963l25.772 19.775zm658.003 163.441a5.25 5.25 0 0 1 5.888 4.513 5.24 5.24 0 0 1-4.52 5.882l-32.203 4.24a5.25 5.25 0 0 1-5.888-4.512 5.24 5.24 0 0 1 4.52-5.883l32.203-4.24zM98.21 484.527a5.25 5.25 0 0 1 5.888 4.512 5.24 5.24 0 0 1-4.52 5.882l-32.203 4.24a5.25 5.25 0 0 1-5.888-4.513 5.24 5.24 0 0 1 4.52-5.882l32.203-4.24zm405.952 340.451a5.25 5.25 0 0 1-4.512 5.889 5.24 5.24 0 0 1-5.883-4.52l-4.24-32.209a5.25 5.25 0 0 1 4.512-5.888 5.24 5.24 0 0 1 5.883 4.52l4.24 32.208zM407.823 93.212a5.25 5.25 0 0 1-4.512 5.888 5.24 5.24 0 0 1-5.882-4.52l-4.24-32.208a5.25 5.25 0 0 1 4.512-5.888 5.24 5.24 0 0 1 5.882 4.52l4.24 32.208zm183.45-7.498a5.25 5.25 0 0 1 6.853-2.844 5.24 5.24 0 0 1 2.834 6.856l-12.432 30.013a5.25 5.25 0 0 1-6.852 2.844 5.24 5.24 0 0 1-2.834-6.856l12.432-30.013zM308.824 767.61a5.25 5.25 0 0 1 6.851-2.843 5.24 5.24 0 0 1 2.835 6.855l-12.432 30.014a5.25 5.25 0 0 1-6.852 2.843 5.24 5.24 0 0 1-2.834-6.856l12.431-30.013zm497.811-181.34a5.25 5.25 0 0 1 2.843 6.852 5.24 5.24 0 0 1-6.855 2.835l-30.009-12.43a5.25 5.25 0 0 1-2.843-6.852 5.24 5.24 0 0 1 6.855-2.835l30.01 12.43zM124.738 303.82a5.25 5.25 0 0 1 2.843 6.851 5.24 5.24 0 0 1-6.855 2.835l-30.01-12.43a5.25 5.25 0 0 1-2.842-6.852 5.24 5.24 0 0 1 6.855-2.835l30.01 12.43zm677.886-12.43a5.25 5.25 0 0 1 6.856 2.834 5.24 5.24 0 0 1-2.843 6.852l-30.012 12.43a5.25 5.25 0 0 1-6.855-2.834 5.24 5.24 0 0 1 2.843-6.852l30.011-12.43zM120.726 573.84a5.25 5.25 0 0 1 6.855 2.835 5.24 5.24 0 0 1-2.843 6.852l-30.011 12.43a5.25 5.25 0 0 1-6.856-2.834 5.24 5.24 0 0 1 2.844-6.852l30.01-12.43zM600.96 797.624a5.25 5.25 0 0 1-2.835 6.856 5.24 5.24 0 0 1-6.852-2.844l-12.431-30.013a5.25 5.25 0 0 1 2.834-6.855 5.24 5.24 0 0 1 6.852 2.843l12.432 30.013zM318.509 115.727a5.25 5.25 0 0 1-2.835 6.855 5.24 5.24 0 0 1-6.852-2.843l-12.431-30.013a5.25 5.25 0 0 1 2.834-6.856 5.24 5.24 0 0 1 6.852 2.844l12.432 30.013z" fill="url(#d)"/><path d="M168.887 723.223l320.27-229.145 239.956-299.734L440.207 442.57l-271.32 280.653z" fill="#000" filter="url(#e)"/><path d="M399.6 393.7l-245 320 292.3-270.5-47.3-49.5z" fill="#F0F0F0"/><path d="M154.6 713.7l338.3-221.3-46-49.2-292.3 270.5z" fill="#ACACAC"/><path d="M492.9 492.4L739 172.6 446.7 443.1l46.2 49.3z" fill="#CE181F"/><path d="M739 172.6L399.6 393.7l47.1 49.4L739 172.6z" fill="#FB5656"/></g></svg>
